<svg width="400" height="400" viewBox="0 0 400 400" fill="#AC8435" xmlns="http://www.w3.org/2000/svg">
<rect width="400" height="400" fill="#AC8435"/>
<mask id="mask0_1743_6" style="mask-type:alpha" maskUnits="userSpaceOnUse" x="0" y="0" width="400" height="400">
<rect width="400" height="400" fill="#AC8435"/>
</mask>
<g mask="url(#mask0_1743_6)">
<path d="M-56.039 307.157C-51.53 305.411 -49.279 300.354 -51.0072 295.857L-51.009 295.852L-51.0249 295.81C-51.0464 295.752 -51.0842 295.649 -51.1358 295.503C-51.2392 295.212 -51.398 294.752 -51.5943 294.141C-51.9877 292.918 -52.5279 291.102 -53.0749 288.839C-54.1768 284.28 -55.2648 278.077 -55.3084 271.343C-55.3955 257.887 -51.4292 243.57 -36.3695 234.594C-20.6941 225.251 -3.03536 227.321 18.4151 230.214L19.5587 230.369C30.7775 231.885 43.1078 233.551 55.5437 232.482C65.3058 231.643 75.1329 229.119 84.5385 223.513C93.9027 217.931 100.779 210.53 106.151 202.385C113.048 191.927 117.465 180.245 121.483 169.619L121.891 168.54C129.551 148.296 136.131 131.779 151.807 122.436C167.482 113.093 185.141 115.163 206.591 118.056L207.735 118.21C219.099 119.746 231.604 121.436 244.203 120.281C253.806 119.401 263.464 116.868 272.715 111.354C281.924 105.865 288.727 98.6157 294.059 90.6302C301.111 80.0702 305.59 68.2236 309.659 57.4608L310.067 56.3815C317.728 36.1377 324.308 19.6205 339.983 10.2775C355.159 1.23229 370.466 4.24263 383.079 10.4437C389.357 13.5297 394.652 17.279 398.397 20.2876C400.258 21.7825 401.706 23.07 402.668 23.9635C403.149 24.4096 403.507 24.7555 403.732 24.9774C403.845 25.0883 403.924 25.1681 403.969 25.2138L404 25.2451L404.007 25.2519L404.01 25.2548L404.012 25.2571C407.36 28.7176 412.893 28.8108 416.378 25.4623C419.867 22.11 419.982 16.5775 416.635 13.1053L410.318 19.1752C416.635 13.1053 416.633 13.1027 416.63 13.1L416.624 13.0938L416.61 13.0788L416.57 13.0382L416.45 12.9158C416.352 12.8162 416.217 12.6813 416.047 12.514C415.707 12.1795 415.226 11.715 414.613 11.1457C413.387 10.0082 411.625 8.44446 409.401 6.65723C404.975 3.1016 398.595 -1.43599 390.855 -5.24104C375.434 -12.8221 353.339 -18.0104 331.043 -4.72167C309.656 8.02585 301.245 30.2703 294.099 49.1718L293.691 50.2512C286.03 70.4949 279.45 87.0122 263.775 96.3551C248.099 105.698 230.441 103.628 208.99 100.735L207.847 100.581C187.821 97.8742 164.254 94.6891 142.867 107.437C121.479 120.184 113.069 142.429 105.923 161.33L105.514 162.409C97.8541 182.653 91.2739 199.17 75.5986 208.513C59.9232 217.856 42.2644 215.786 20.8139 212.893L19.6703 212.739C-0.354979 210.033 -23.922 206.847 -45.3094 219.595C-67.7211 232.953 -72.926 254.594 -72.8165 271.512C-72.7618 279.966 -71.4096 287.554 -70.0957 292.99C-69.4349 295.724 -68.7734 297.956 -68.267 299.531C-68.0135 300.319 -67.7979 300.946 -67.6394 301.393C-67.5601 301.616 -67.4949 301.794 -67.4464 301.925L-67.3862 302.086L-67.3659 302.139L-67.3584 302.159L-67.3552 302.167C-67.3539 302.17 -67.3526 302.174 -59.1819 299.01L-67.3526 302.174C-65.6168 306.673 -60.5515 308.904 -56.039 307.157Z" fill="white"/>
<path d="M-13.0124 359.604C-11.2842 364.1 -13.5352 369.157 -18.0442 370.903C-22.5567 372.65 -27.622 370.42 -29.3578 365.921L-21.1871 362.757C-29.3578 365.921 -29.3591 365.917 -29.3605 365.914L-29.3636 365.905L-29.3712 365.886L-29.3914 365.832L-29.4516 365.672C-29.5001 365.541 -29.5653 365.362 -29.6446 365.139C-29.8031 364.693 -30.0187 364.066 -30.2722 363.277C-30.7786 361.702 -31.4401 359.47 -32.1009 356.736C-33.4148 351.301 -34.767 343.712 -34.8217 335.259C-34.9313 318.341 -29.7263 296.7 -7.31465 283.342C14.0728 270.594 37.6398 273.779 57.6651 276.486L58.8087 276.64C80.2592 279.533 97.9179 281.603 113.593 272.26C129.269 262.917 135.849 246.4 143.509 226.156L143.917 225.077C151.064 206.175 159.474 183.931 180.862 171.183C202.249 158.436 225.816 161.621 245.841 164.327L246.985 164.482C268.435 167.375 286.094 169.445 301.77 160.102C317.445 150.759 324.025 134.242 331.686 113.998L332.094 112.918C339.24 94.017 347.65 71.7725 369.038 59.025C391.333 45.7362 413.429 50.9245 428.85 58.5056C436.59 62.3107 442.97 66.8483 447.396 70.4039C449.62 72.1911 451.382 73.7549 452.607 74.8923C453.221 75.4617 453.702 75.9261 454.042 76.2606C454.212 76.4279 454.346 76.5629 454.445 76.6625L454.565 76.7849L454.605 76.8255L454.619 76.8405L454.625 76.8467C454.628 76.8494 454.63 76.852 448.313 82.9219L454.63 76.852C457.977 80.3242 457.862 85.8566 454.373 89.209C450.888 92.5574 445.355 92.4643 442.007 89.0038L442.005 89.0015L442.002 88.9986L441.995 88.9917L441.964 88.9604C441.919 88.9147 441.839 88.835 441.727 88.7241C441.501 88.5021 441.144 88.1563 440.663 87.7102C439.701 86.8167 438.253 85.5291 436.392 84.0342C432.647 81.0257 427.351 77.2764 421.074 74.1903C408.46 67.9893 393.154 64.979 377.978 74.0242C362.302 83.3672 355.722 99.8844 348.062 120.128L347.654 121.207C343.585 131.97 339.105 143.817 332.054 154.377C326.722 162.362 319.919 169.612 310.71 175.101C301.459 180.615 291.801 183.148 282.198 184.028C269.598 185.183 257.094 183.493 245.73 181.957L244.586 181.803C223.136 178.91 205.477 176.84 189.802 186.183C174.126 195.525 167.546 212.043 159.886 232.287L159.477 233.366C155.46 243.992 151.043 255.674 144.146 266.131C138.774 274.276 131.897 281.678 122.533 287.259C113.128 292.865 103.301 295.39 93.5385 296.229C81.1026 297.298 68.7723 295.632 57.5535 294.115L56.4099 293.961C34.9594 291.068 17.3007 288.998 1.6253 298.341C-13.4344 307.317 -17.4007 321.633 -17.3136 335.09C-17.27 341.823 -16.182 348.026 -15.0801 352.585C-14.5331 354.848 -13.9929 356.665 -13.5995 357.888C-13.4032 358.499 -13.2444 358.959 -13.141 359.25C-13.0894 359.395 -13.0517 359.498 -13.0301 359.556L-13.0142 359.599L-13.0124 359.604Z" fill="white"/>
<path d="M24.9806 423.346L24.9814 423.348C26.7114 427.845 24.4604 432.904 19.9506 434.65C15.4381 436.397 10.3728 434.166 8.63703 429.667L16.8077 426.504C8.63703 429.667 8.63572 429.664 8.63434 429.66L8.6312 429.652L8.62363 429.632L8.60338 429.579L8.5432 429.418C8.49464 429.287 8.42952 429.109 8.35022 428.886C8.19168 428.44 7.97608 427.813 7.72256 427.024C7.21617 425.449 6.55469 423.217 5.89384 420.483C4.58001 415.047 3.22777 407.459 3.17304 399.005C3.06353 382.088 8.26853 360.446 30.6801 347.088C52.0676 334.341 75.6346 337.526 95.6599 340.232L96.8035 340.387C118.254 343.28 135.913 345.35 151.588 336.007C167.264 326.664 173.844 310.147 181.504 289.903L181.912 288.823C189.059 269.922 197.469 247.677 218.856 234.93C240.244 222.182 263.811 225.367 283.836 228.074L284.98 228.228C306.43 231.121 324.089 233.191 339.764 223.848C355.44 214.505 362.02 197.988 369.68 177.744L370.088 176.665C377.235 157.764 385.645 135.519 407.033 122.772C429.328 109.483 451.424 114.671 466.845 122.252C474.585 126.057 480.964 130.595 485.39 134.151C487.615 135.938 489.377 137.502 490.602 138.639C491.216 139.208 491.697 139.673 492.036 140.007C492.206 140.175 492.341 140.31 492.44 140.409L492.56 140.532L492.599 140.572L492.614 140.587L492.62 140.593C492.623 140.596 492.625 140.599 486.307 146.669L492.625 140.599C495.972 144.071 495.857 149.603 492.368 152.956C488.883 156.304 483.35 156.211 480.002 152.75L479.999 152.748L479.997 152.745L479.99 152.738L479.959 152.707C479.939 152.686 479.911 152.659 479.877 152.625C479.835 152.583 479.783 152.531 479.722 152.471C479.496 152.249 479.139 151.903 478.658 151.457C477.695 150.563 476.248 149.276 474.387 147.781C470.642 144.772 465.346 141.023 459.069 137.937C446.455 131.736 431.149 128.726 415.973 137.771C400.297 147.114 393.717 163.631 386.057 183.875L385.649 184.954C381.579 195.717 377.1 207.564 370.049 218.124C364.717 226.109 357.914 233.359 348.704 238.848C339.454 244.361 329.796 246.894 320.193 247.775C307.593 248.93 295.089 247.24 283.725 245.704L282.581 245.549C261.131 242.656 243.472 240.586 227.796 249.929C212.121 259.272 205.541 275.789 197.88 296.033L197.472 297.113C193.455 307.738 189.038 319.421 182.141 329.878C176.769 338.023 169.892 345.425 160.528 351.006C151.122 356.612 141.295 359.137 131.533 359.976C119.097 361.045 106.767 359.378 95.5485 357.862L94.4047 357.708C72.9542 354.815 55.2955 352.745 39.6201 362.088C24.5603 371.064 20.5941 385.38 20.6812 398.836C20.7248 405.57 21.8128 411.773 22.9147 416.332C23.4617 418.595 24.0019 420.411 24.3952 421.635C24.5916 422.246 24.7504 422.706 24.8538 422.997C24.9054 423.142 24.9431 423.245 24.9647 423.303L24.9806 423.346Z" fill="white"/>
</g>
</svg>
